<svg width="175" height="146" viewBox="0 0 175 146" fill="none" xmlns="http://www.w3.org/2000/svg">
<path d="M153.261 56.2433H172.309L108.839 2.03027L45.3701 56.2433H64.4178L108.839 18.3001L153.261 56.2433Z" fill="#9A4D01"/>
<path d="M162.677 56.2433H172.309L108.839 2.03027L104.084 6.09204L162.677 56.2433Z" fill="#8C4402"/>
<path d="M108.839 18.3003L64.4178 56.2434V121.216H153.124V56.2434H153.261L108.839 18.3003Z" fill="#E6130E"/>
<path d="M108.839 18.3003L105.794 20.9019L147.169 56.2434H147.032V121.216H153.124V56.2434H153.261L108.839 18.3003Z" fill="#C91C00"/>
<path d="M108.839 67.4705C95.0828 67.4705 83.9309 78.6223 83.9309 92.3789V121.216H133.748V92.3786C133.748 78.6221 122.596 67.4705 108.839 67.4705Z" fill="#C91C00"/>
<path d="M173.788 54.6992L110.319 0.486452C109.559 -0.162151 108.44 -0.162151 107.681 0.486452L44.2118 54.6992C43.5653 55.2516 43.3314 56.1484 43.6256 56.9461C43.9199 57.7439 44.6803 58.2738 45.5305 58.2738H62.5477V103.426C62.5477 104.548 63.4568 105.457 64.5782 105.457C65.6996 105.457 66.6087 104.548 66.6087 103.426V57.1795L109 20.9703L128.611 37.7217C129.464 38.4503 130.746 38.3488 131.474 37.4965C132.202 36.644 132.102 35.3619 131.249 34.6337L110.319 16.756C109.559 16.1074 108.44 16.1074 107.681 16.756L63.8288 54.2128H51.0343L109 4.70071L166.966 54.2125H154.171L136.326 38.9697C135.473 38.241 134.191 38.3429 133.463 39.1949C132.735 40.0474 132.835 41.3295 133.688 42.0577L133.769 42.1273L136.848 44.7568L151.254 57.0618V119.184H135.939V92.3783C135.939 77.5241 123.854 65.4391 109 65.4391C94.1458 65.4391 82.0608 77.5241 82.0608 92.3783V119.184H66.609V110.052C66.609 108.931 65.6999 108.022 64.5785 108.022C63.457 108.022 62.548 108.931 62.548 110.052V119.184H47.5439C46.4224 119.184 45.5134 120.093 45.5134 121.215C45.5134 122.337 46.4224 123.245 47.5439 123.245H64.5782H84.0913H133.908H153.284H170.456C171.578 123.245 172.487 122.337 172.487 121.215C172.487 120.093 171.578 119.184 170.456 119.184H155.315V58.2738H172.469C173.319 58.2738 174.08 57.7439 174.374 56.9461C174.669 56.1486 174.435 55.2516 173.788 54.6992ZM86.1221 119.185V92.3786C86.1221 79.7634 96.3851 69.5007 109 69.5007C121.615 69.5007 131.878 79.7634 131.878 92.3786V119.185H86.1221Z" fill="black"/>
<path d="M82.4369 125.624C81.1977 118.464 76.2081 108.617 74.2938 105.02C73.151 106.459 71.3589 107.896 68.7136 109.198C68.7121 109.199 68.7108 109.2 68.7093 109.2C68.191 109.473 67.6357 109.738 67.0457 109.993C67.0372 109.997 67.0283 110.001 67.0198 110.004C66.4313 110.258 65.8085 110.503 65.1534 110.738C65.1424 110.742 65.1311 110.746 65.1201 110.75C64.9091 110.825 64.695 110.9 64.4775 110.973C64.4704 110.975 64.4637 110.978 64.4566 110.98C64.0035 111.133 63.5367 111.281 63.0564 111.423C63.049 111.426 63.0414 111.428 63.034 111.43C62.8091 111.497 62.5811 111.562 62.3504 111.627C62.3261 111.634 62.3022 111.641 62.2777 111.648C61.555 111.849 60.8048 112.04 60.0287 112.22C59.9922 112.228 59.9551 112.237 59.9182 112.245C59.6878 112.298 59.4553 112.35 59.2207 112.401C59.1932 112.407 59.1658 112.413 59.1382 112.419C58.6124 112.532 58.0761 112.64 57.5294 112.743C57.4866 112.751 57.4433 112.759 57.4003 112.766C57.1719 112.809 56.9417 112.85 56.7098 112.891C56.6569 112.901 56.6044 112.91 56.5516 112.919C56.2855 112.965 56.0176 113.01 55.7469 113.053C55.7423 113.054 55.7378 113.055 55.7336 113.056C55.4488 113.101 55.1613 113.146 54.8719 113.189C54.8298 113.195 54.7873 113.201 54.7449 113.207C54.5079 113.242 54.2693 113.276 54.0295 113.309C53.9591 113.318 53.8885 113.328 53.8178 113.337C53.5853 113.368 53.3517 113.398 53.1166 113.428C53.0618 113.435 53.0075 113.442 52.9526 113.449C52.6594 113.485 52.3646 113.52 52.0676 113.553C52.0497 113.555 52.0315 113.557 52.0136 113.558C51.7434 113.588 51.4714 113.617 51.1979 113.645C51.1187 113.653 51.0389 113.66 50.9595 113.668C50.7369 113.69 50.5133 113.711 50.2885 113.731C50.2073 113.739 50.1264 113.746 50.0449 113.753C49.7642 113.778 49.4823 113.801 49.1985 113.823C49.1824 113.825 49.1663 113.826 49.1502 113.827C48.8482 113.85 48.544 113.872 48.2387 113.892C48.1585 113.898 48.0776 113.903 47.9974 113.908C47.771 113.922 47.5436 113.936 47.3154 113.949C47.2197 113.954 47.1242 113.959 47.0282 113.964C46.791 113.977 46.553 113.989 46.3142 114C46.2416 114.003 46.1695 114.007 46.0967 114.01C45.7879 114.023 45.478 114.035 45.1665 114.045C45.1026 114.047 45.0383 114.049 44.9745 114.051C44.7255 114.058 44.4754 114.065 44.2247 114.071C44.1242 114.073 44.0236 114.076 43.9227 114.077C43.6948 114.082 43.4664 114.086 43.2373 114.088C43.1432 114.09 43.0496 114.091 42.9554 114.092C42.6381 114.095 42.3198 114.097 42.0001 114.097C41.6805 114.097 41.3622 114.095 41.0447 114.092C40.9505 114.091 40.8569 114.09 40.763 114.088C40.5337 114.086 40.3051 114.082 40.0772 114.077C39.9765 114.075 39.8761 114.073 39.7757 114.071C39.5245 114.065 39.2742 114.058 39.0245 114.051C38.9611 114.049 38.8973 114.047 38.834 114.045C38.5223 114.035 38.2118 114.023 37.9028 114.01C37.8304 114.007 37.7587 114.003 37.6865 114C37.4476 113.989 37.2094 113.977 36.9722 113.965C36.8761 113.96 36.7802 113.954 36.6844 113.949C36.4562 113.936 36.2288 113.922 36.0023 113.908C35.922 113.903 35.8416 113.898 35.7616 113.893C35.4561 113.872 35.1521 113.851 34.85 113.827C34.8333 113.826 34.8169 113.825 34.8002 113.823C34.5168 113.801 34.2351 113.778 33.9548 113.753C33.8737 113.746 33.793 113.739 33.7121 113.732C33.4868 113.711 33.2627 113.69 33.0396 113.668C32.9604 113.661 32.881 113.653 32.802 113.645C32.5295 113.617 32.2585 113.589 31.9893 113.559C31.9701 113.557 31.9507 113.555 31.9315 113.553C31.6346 113.52 31.3398 113.485 31.0469 113.449C30.9923 113.442 30.9383 113.435 30.884 113.428C30.6484 113.399 30.414 113.368 30.1813 113.337C30.1111 113.328 30.0412 113.318 29.9711 113.309C29.731 113.276 29.4924 113.242 29.2553 113.207C29.2128 113.201 29.17 113.195 29.1277 113.189C28.8385 113.146 28.551 113.102 28.2665 113.056C28.2616 113.055 28.2569 113.054 28.2519 113.053C27.9814 113.01 27.7138 112.965 27.4479 112.919C27.3952 112.91 27.343 112.901 27.2905 112.891C27.0585 112.851 26.8284 112.809 26.5998 112.767C26.5567 112.759 26.5132 112.751 26.4702 112.743C25.9234 112.64 25.3869 112.532 24.8612 112.419C24.8342 112.413 24.8074 112.407 24.7805 112.401C24.5454 112.35 24.3126 112.298 24.082 112.245C24.0449 112.237 24.0078 112.228 23.9709 112.22C23.195 112.04 22.4448 111.849 21.7219 111.648C21.698 111.641 21.674 111.634 21.65 111.628C21.4194 111.563 21.1913 111.497 20.9666 111.43C20.959 111.428 20.9513 111.426 20.9436 111.424C20.4631 111.281 19.9963 111.133 19.543 110.98C19.5363 110.978 19.5299 110.976 19.5233 110.974C19.3054 110.9 19.0908 110.826 18.8795 110.75C18.8687 110.746 18.8577 110.742 18.847 110.739C18.1918 110.504 17.5688 110.259 16.9802 110.004C16.9716 110.001 16.9631 109.997 16.9546 109.993C16.3644 109.738 15.8091 109.474 15.2905 109.2C15.2893 109.2 15.2879 109.199 15.2864 109.198C12.641 107.896 10.8488 106.458 9.70596 105.02C7.78642 108.627 2.77234 118.523 1.55204 125.689C1.4011 126.288 1.32186 126.895 1.32186 127.511C1.3107 127.66 1.31612 127.805 1.33498 127.947C1.88574 137.189 19.8828 144.609 42.0033 144.609C64.1866 144.609 82.2208 137.146 82.674 127.868C82.6817 127.786 82.6838 127.702 82.6815 127.617C82.682 127.581 82.6846 127.546 82.6846 127.511C82.6845 126.873 82.5987 126.244 82.4369 125.624Z" fill="#0F5BBF"/>
<path d="M82.4369 125.624C81.1978 118.464 76.2081 108.617 74.2939 105.02C73.6301 105.856 72.7456 106.69 71.6041 107.498C73.8999 112.052 77.4465 119.743 78.4643 125.624C78.6261 126.244 78.7119 126.873 78.7119 127.511C78.7119 127.546 78.7093 127.581 78.7088 127.617C78.7111 127.702 78.709 127.786 78.7012 127.868C78.2616 136.868 61.2801 144.159 40.0159 144.589C40.6745 144.602 41.3368 144.609 42.0032 144.609C64.1865 144.609 82.2207 137.146 82.6739 127.868C82.6816 127.785 82.6837 127.701 82.6814 127.617C82.6819 127.581 82.6845 127.546 82.6845 127.511C82.6845 126.873 82.5987 126.244 82.4369 125.624Z" fill="#1B2797"/>
<path d="M71.8009 95.6054C70.9164 95.6054 70.07 95.7672 69.2883 96.061C68.6458 92.7737 65.7511 90.2927 62.2757 90.2927C61.4108 90.2927 60.5815 90.4466 59.814 90.7281C59.3533 87.2261 56.3588 84.522 52.7309 84.522C51.1157 84.522 49.626 85.0585 48.4293 85.9618C47.2701 83.5799 44.827 81.938 41.9999 81.938C39.1728 81.938 36.7297 83.5799 35.5704 85.9618C34.3736 85.0581 32.8841 84.522 31.2689 84.522C27.641 84.522 24.6467 87.2259 24.1858 90.7281C23.4183 90.4466 22.5893 90.2927 21.724 90.2927C18.2487 90.2927 15.3542 92.7737 14.7115 96.061C13.9296 95.7673 13.0832 95.6054 12.1989 95.6054C8.25188 95.6054 3.98789 103.636 15.2862 109.198C20.8685 112.141 30.7449 114.098 41.9996 114.098C53.2543 114.098 63.1307 112.141 68.7129 109.198C80.0119 103.636 75.7479 95.6054 71.8009 95.6054Z" fill="#FE9901"/>
<path d="M10.6227 96.0203C10.6614 96.034 10.7009 96.0467 10.7395 96.0613C10.7469 96.0234 10.7562 95.9861 10.7641 95.9487C10.7167 95.9714 10.6698 95.9955 10.6227 96.0203Z" fill="#FE9901"/>
<path d="M55.8416 90.7281C56.6091 90.4466 57.4381 90.2927 58.3032 90.2927C58.8064 90.2927 59.2966 90.3462 59.7702 90.4451C59.1896 87.0815 56.2606 84.522 52.731 84.522C52.0417 84.522 51.3758 84.6204 50.7453 84.8025C53.433 85.5797 55.4685 87.892 55.8416 90.7281Z" fill="#ED8803"/>
<path d="M65.3157 96.0612C66.0976 95.7675 66.9438 95.6056 67.8283 95.6056C68.3118 95.6056 68.7997 95.7268 69.2637 95.9483C68.5776 92.7176 65.7112 90.2927 62.2759 90.2927C61.5865 90.2927 60.9205 90.3918 60.2898 90.5741C62.838 91.3106 64.8005 93.4262 65.3157 96.0612Z" fill="#ED8803"/>
<path d="M71.801 95.6055C70.9601 95.6055 70.1544 95.7531 69.405 96.0201C72.6426 97.7302 74.5137 104.387 64.7409 109.198C59.4897 111.967 50.438 113.862 40.014 114.077C40.6709 114.09 41.333 114.098 42.0003 114.098C53.2552 114.098 63.1314 112.142 68.7136 109.198C80.012 103.636 75.748 95.6055 71.801 95.6055Z" fill="#ED8803"/>
<path d="M42.0237 129.891C42.0158 129.891 41.9848 129.891 41.9769 129.891C38.4117 129.891 34.8622 137.359 37.156 138.43C38.1576 138.897 39.2038 138.835 40.0645 138.617C40.6981 138.457 41.3492 138.378 42.0002 138.38C42.6512 138.378 43.3024 138.457 43.936 138.617C44.7969 138.835 45.8429 138.897 46.8445 138.43C49.1383 137.359 45.5888 129.891 42.0237 129.891Z" fill="white"/>
<path d="M34.5502 124.664C35.2516 126.221 37.493 127.598 39.051 126.897C40.6089 126.196 40.8934 123.682 40.192 122.124C39.4907 120.566 37.6592 119.871 36.1013 120.573C34.5432 121.274 33.8489 123.106 34.5502 124.664Z" fill="white"/>
<path d="M30.2757 132.23C31.4945 133.039 34.0214 133.284 34.8306 132.065C35.6397 130.846 34.425 128.625 33.2062 127.816C31.9874 127.007 30.3433 127.339 29.5341 128.558C28.725 129.776 29.0567 131.42 30.2757 132.23Z" fill="white"/>
<path d="M49.4502 124.664C48.7488 126.221 46.5074 127.598 44.9494 126.897C43.3915 126.196 43.107 123.682 43.8084 122.124C44.5097 120.566 46.3412 119.871 47.8991 120.573C49.4572 121.274 50.1515 123.106 49.4502 124.664Z" fill="white"/>
<path d="M53.7248 132.23C52.506 133.039 49.9792 133.284 49.1699 132.065C48.3606 130.846 49.5753 128.625 50.7943 127.816C52.0131 127.007 53.6572 127.339 54.4664 128.558C55.2755 129.776 54.9436 131.42 53.7248 132.23Z" fill="white"/>
<path d="M38.698 95.9617C38.698 92.9092 36.2146 90.4258 33.162 90.4258C30.1095 90.4258 27.626 92.9092 27.626 95.9617C27.626 96.6884 28.2152 97.2774 28.9417 97.2774C29.6681 97.2774 30.2573 96.6882 30.2573 95.9617C30.2573 94.3602 31.5603 93.057 33.162 93.057C34.7636 93.057 36.0667 94.36 36.0667 95.9617C36.0667 96.6884 36.6559 97.2774 37.3824 97.2774C38.109 97.2774 38.698 96.6884 38.698 95.9617Z" fill="black"/>
<path d="M47.9337 95.9617C47.9337 94.3602 49.2367 93.057 50.8386 93.057C52.4402 93.057 53.7434 94.36 53.7434 95.9617C53.7434 96.6884 54.3322 97.2774 55.059 97.2774C55.7858 97.2774 56.3746 96.6882 56.3746 95.9617C56.3746 92.9092 53.8913 90.4258 50.8386 90.4258C47.7859 90.4258 45.3025 92.9092 45.3025 95.9617C45.3025 96.6884 45.8913 97.2774 46.6181 97.2774C47.3447 97.2774 47.9337 96.6884 47.9337 95.9617Z" fill="black"/>
<path d="M37.7799 106.321C38.5065 106.321 39.0955 105.732 39.0955 105.005C39.0955 103.404 40.3985 102.1 42.0003 102.1C43.602 102.1 44.9052 103.403 44.9052 105.005C44.9052 105.732 45.494 106.321 46.2208 106.321C46.9476 106.321 47.5364 105.732 47.5364 105.005C47.5364 101.953 45.053 99.4692 42.0003 99.4692C38.9475 99.4692 36.4643 101.953 36.4643 105.005C36.4641 105.732 37.0533 106.321 37.7799 106.321Z" fill="black"/>
<path d="M21.9803 99.4692C18.9278 99.4692 16.4443 101.953 16.4443 105.005C16.4443 105.732 17.0335 106.321 17.76 106.321C18.4866 106.321 19.0756 105.732 19.0756 105.005C19.0756 103.404 20.3786 102.1 21.9803 102.1C23.582 102.1 24.885 103.403 24.885 105.005C24.885 105.732 25.4742 106.321 26.2006 106.321C26.9271 106.321 27.5163 105.732 27.5163 105.005C27.5163 101.953 25.0329 99.4692 21.9803 99.4692Z" fill="black"/>
<path d="M59.1153 105.005C59.1153 103.404 60.4183 102.1 62.02 102.1C63.6218 102.1 64.9248 103.403 64.9248 105.005C64.9248 105.732 65.5136 106.321 66.2404 106.321C66.9672 106.321 67.556 105.732 67.556 105.005C67.556 101.953 65.0728 99.4692 62.02 99.4692C58.9673 99.4692 56.4841 101.953 56.4841 105.005C56.4841 105.732 57.0729 106.321 57.7997 106.321C58.5265 106.321 59.1153 105.732 59.1153 105.005Z" fill="black"/>
<path d="M41.9768 128.576C38.665 128.576 35.9071 132.75 35.2669 135.635C34.6563 138.387 35.9951 139.34 36.5993 139.622C37.72 140.145 39.0248 140.238 40.3873 139.893C40.9046 139.762 41.4393 139.695 41.9765 139.695H42.024C42.5612 139.695 43.0959 139.762 43.613 139.893C44.1519 140.029 44.6851 140.098 45.1982 140.098C45.9824 140.098 46.7236 139.938 47.4012 139.622C48.0051 139.34 49.3443 138.387 48.7337 135.635C48.0935 132.749 45.3358 128.575 42.024 128.575H41.9768V128.576ZM45.2488 133.977C46.2275 135.653 46.3377 136.931 46.2216 137.267C45.9094 137.402 45.5737 137.467 45.1982 137.467C44.9027 137.467 44.5869 137.425 44.2589 137.342C43.5306 137.158 42.7787 137.064 42.0239 137.064H41.9763C41.2214 137.064 40.4695 137.158 39.7413 137.342C39.0027 137.529 38.3352 137.506 37.7784 137.267C37.6623 136.931 37.7727 135.653 38.7513 133.977C39.7194 132.32 41.0155 131.207 41.9765 131.207H42.0234C42.9845 131.207 44.2807 132.32 45.2488 133.977Z" fill="black"/>
<path d="M37.3693 118.984C36.7434 118.984 36.1351 119.115 35.561 119.373C33.3442 120.371 32.3526 122.987 33.3504 125.204C34.1574 126.996 36.2586 128.4 38.1338 128.401C38.6526 128.401 39.1428 128.298 39.5907 128.097C40.7076 127.594 41.4779 126.524 41.7596 125.084C41.9886 123.913 41.851 122.605 41.3915 121.584C40.6806 120.004 39.1016 118.984 37.3693 118.984ZM38.5107 125.697C38.4047 125.745 38.2779 125.769 38.1342 125.769C37.2896 125.769 36.1308 124.969 35.75 124.123C35.3476 123.229 35.7474 122.175 36.6413 121.772C36.8735 121.668 37.1184 121.615 37.3693 121.615C38.0684 121.615 38.7053 122.027 38.9922 122.664C39.475 123.736 39.214 125.381 38.5107 125.697Z" fill="black"/>
<path d="M28.4379 127.83C27.8522 128.712 27.6449 129.77 27.8546 130.808C28.0643 131.846 28.6657 132.74 29.5479 133.326C30.3946 133.888 31.5949 134.224 32.7584 134.224H32.7586C34.1884 134.224 35.3134 133.715 35.9263 132.792C37.242 130.811 35.598 127.825 33.9335 126.719C33.2813 126.286 32.5238 126.058 31.7431 126.058C30.4102 126.058 29.1745 126.72 28.4379 127.83ZM33.7345 131.337C33.6688 131.436 33.3461 131.593 32.7588 131.593C32.1321 131.593 31.4102 131.404 31.0035 131.134C30.7068 130.937 30.5044 130.636 30.4338 130.287C30.3633 129.938 30.433 129.582 30.6299 129.286C30.8778 128.912 31.2939 128.69 31.7432 128.69C32.0046 128.69 32.2586 128.766 32.4782 128.912C33.353 129.493 33.9705 130.981 33.7345 131.337Z" fill="black"/>
<path d="M48.4394 119.373C47.8654 119.115 47.257 118.984 46.631 118.984C44.8986 118.984 43.3197 120.004 42.6086 121.584C42.1491 122.605 42.0113 123.913 42.2405 125.084C42.522 126.524 43.2923 127.594 44.4092 128.097C44.8573 128.298 45.3473 128.401 45.8661 128.401C47.7413 128.401 49.8427 126.996 50.6497 125.204C51.648 122.987 50.6564 120.371 48.4394 119.373ZM48.2506 124.124C47.8698 124.969 46.7112 125.769 45.8664 125.769C45.7226 125.769 45.5957 125.745 45.4899 125.697C45.0466 125.498 44.876 124.849 44.8232 124.579C44.6967 123.933 44.7677 123.199 45.0084 122.664C45.2952 122.027 45.9324 121.615 46.6313 121.615C46.8825 121.615 47.1273 121.668 47.3592 121.773C47.7924 121.968 48.1234 122.32 48.2918 122.763C48.4599 123.207 48.4455 123.69 48.2506 124.124Z" fill="black"/>
<path d="M50.0666 126.72C49.2397 127.269 48.4734 128.218 48.0168 129.258C47.4291 130.597 47.4495 131.852 48.0739 132.793C48.6867 133.716 49.8116 134.224 51.2418 134.224C52.4053 134.224 53.6056 133.888 54.4525 133.326C56.2739 132.117 56.772 129.651 55.5625 127.83C54.8257 126.72 53.59 126.058 52.257 126.058C51.4764 126.058 50.7189 126.287 50.0666 126.72ZM53.3705 129.285C53.777 129.898 53.6095 130.727 52.9971 131.134C52.5902 131.404 51.8683 131.593 51.2418 131.593C50.6543 131.593 50.3317 131.436 50.2659 131.337C50.199 131.236 50.1831 130.87 50.4262 130.316C50.7153 129.657 51.1848 129.136 51.5218 128.912C51.7413 128.766 51.9955 128.689 52.2568 128.689C52.7062 128.689 53.1226 128.912 53.3705 129.285Z" fill="black"/>
<path d="M83.7242 125.347C82.5216 118.484 78.0749 109.398 75.8394 105.13C75.8996 105.04 75.9604 104.95 76.017 104.859C77.4929 102.49 77.4311 100.396 77.1191 99.0566C76.4866 96.3391 74.2002 94.2901 71.8011 94.2901C71.2571 94.2901 70.7191 94.3415 70.191 94.4437C68.9664 91.2066 65.8328 88.9773 62.2758 88.9773C61.7761 88.9773 61.2817 89.0206 60.7956 89.1064C59.6992 85.6583 56.4577 83.2065 52.7311 83.2065C51.3683 83.2065 50.0556 83.525 48.8688 84.1366C47.2956 81.9393 44.7736 80.6226 42.0001 80.6226C39.2266 80.6226 36.7045 81.9392 35.1315 84.1365C33.9448 83.525 32.632 83.2064 31.2691 83.2064C27.5428 83.2064 24.3009 85.6581 23.2048 89.1062C22.7187 89.0204 22.2243 88.9771 21.7246 88.9771C18.1676 88.9771 15.034 91.2064 13.8094 94.4435C13.2814 94.3415 12.7433 94.29 12.1996 94.29C9.80036 94.29 7.51398 96.3393 6.88152 99.0565C6.56964 100.396 6.50762 102.49 7.98369 104.859C8.04029 104.95 8.101 105.04 8.16104 105.13C6.89579 107.546 4.85436 111.638 3.12662 115.989C2.85854 116.665 3.18847 117.429 3.86391 117.698C4.02322 117.761 4.18745 117.791 4.34921 117.791C4.87257 117.791 5.36755 117.476 5.57246 116.96C7.05543 113.225 8.77989 109.678 10.0161 107.269C10.1639 107.405 10.3168 107.54 10.4742 107.673C10.4794 107.678 10.4847 107.683 10.4899 107.687C10.4927 107.689 10.4957 107.692 10.4986 107.694C10.61 107.788 10.7239 107.882 10.84 107.974C10.8454 107.979 10.8507 107.983 10.8561 107.987C10.8645 107.994 10.8732 108 10.8815 108.007C11.1616 108.229 11.4548 108.446 11.7614 108.66C11.786 108.677 11.81 108.694 11.8347 108.711C11.8421 108.716 11.8497 108.721 11.857 108.726C11.962 108.798 12.0687 108.87 12.1768 108.941C12.2058 108.96 12.2349 108.979 12.2646 108.999C12.2872 109.013 12.3105 109.028 12.3333 109.042C12.4326 109.106 12.533 109.17 12.6349 109.233C12.661 109.25 12.6864 109.266 12.7138 109.283C12.7687 109.317 12.8255 109.351 12.8841 109.386C12.9617 109.432 13.0393 109.479 13.118 109.525C13.1392 109.538 13.16 109.55 13.1817 109.563C13.2419 109.598 13.3042 109.633 13.3663 109.668C13.4519 109.716 13.5367 109.765 13.624 109.813C13.6391 109.822 13.6537 109.83 13.669 109.839C13.7677 109.893 13.8704 109.947 13.9822 110.007C14.0378 110.036 14.0922 110.066 14.1487 110.095C14.1585 110.1 14.1679 110.106 14.1777 110.111C14.3352 110.193 14.4963 110.274 14.6601 110.355C14.6701 110.36 14.6797 110.365 14.6898 110.37C14.6907 110.371 14.6921 110.371 14.6932 110.372C14.8412 110.45 15.0025 110.532 15.1829 110.621C19.59 112.808 26.0609 114.348 33.4206 115.026C33.4283 115.026 33.4359 115.027 33.4436 115.028C35.2253 115.22 37.0008 115.352 38.721 115.421C42.4073 115.57 46.1399 115.459 49.8157 115.093C49.9693 115.08 50.1176 115.066 50.2689 115.052C50.5719 115.026 50.8741 114.998 51.1748 114.968C51.4718 114.939 51.7663 114.908 52.0573 114.877C52.1791 114.863 52.3006 114.85 52.422 114.836C52.836 114.789 53.2473 114.74 53.6548 114.687C53.7846 114.67 53.9071 114.634 54.021 114.583C54.0256 114.581 54.0305 114.58 54.0351 114.578C54.0597 114.566 54.0828 114.553 54.1063 114.54C54.1206 114.533 54.1353 114.526 54.1493 114.518C54.1688 114.506 54.1869 114.493 54.2056 114.481C54.2225 114.47 54.24 114.46 54.2561 114.448C54.2741 114.435 54.2909 114.421 54.3083 114.407C54.3239 114.394 54.3403 114.382 54.3554 114.369C54.37 114.356 54.3831 114.342 54.397 114.328C54.4133 114.313 54.4303 114.298 54.4459 114.281C54.4582 114.268 54.4689 114.253 54.4807 114.24C54.4964 114.222 54.513 114.204 54.5278 114.185C54.5389 114.17 54.5488 114.154 54.5596 114.139C54.5731 114.12 54.5875 114.101 54.6 114.081C54.6124 114.061 54.6231 114.04 54.6346 114.02C54.6438 114.003 54.6538 113.987 54.6622 113.971C54.6779 113.939 54.6917 113.907 54.7048 113.874C54.7074 113.868 54.7109 113.861 54.7133 113.855C54.7245 113.826 54.7337 113.796 54.7429 113.766C54.7462 113.755 54.7506 113.745 54.7535 113.733C54.7993 113.569 54.8136 113.392 54.79 113.212C54.785 113.175 54.7778 113.139 54.7701 113.103C54.7685 113.095 54.7676 113.087 54.7658 113.08C54.7635 113.07 54.7599 113.06 54.7575 113.05C54.6046 112.46 54.0617 112.049 53.4497 112.067C53.4053 112.068 53.3606 112.071 53.3155 112.077C53.3109 112.078 53.3062 112.078 53.3014 112.079C52.9119 112.129 52.5193 112.176 52.1254 112.221C52.004 112.235 51.8823 112.249 51.76 112.262C51.4839 112.292 51.206 112.321 50.9279 112.348C50.6175 112.379 50.3025 112.408 49.9832 112.436C47.394 112.664 44.7224 112.782 42.0006 112.782C39.2995 112.782 36.6587 112.669 34.1292 112.452C33.9909 112.438 33.8533 112.426 33.7148 112.411C33.7079 112.41 33.7012 112.409 33.6943 112.409C26.7241 111.769 20.6424 110.334 16.5653 108.367L16.4943 108.334C16.4319 108.303 16.3709 108.273 16.3095 108.242C16.1747 108.175 16.0398 108.107 15.9091 108.038C15.9064 108.037 15.9038 108.036 15.9012 108.034C15.8956 108.031 15.89 108.029 15.8841 108.026C15.8787 108.023 15.8735 108.02 15.8682 108.018C15.8538 108.011 15.8402 108.003 15.8257 107.996C15.6874 107.928 15.5516 107.859 15.4184 107.79C15.3032 107.73 15.1901 107.669 15.0779 107.609C15.0532 107.595 15.0284 107.582 15.0041 107.569C10.8743 105.308 8.80712 102.391 9.44434 99.653C9.83711 97.9656 11.1803 96.9212 12.1998 96.9212C12.9041 96.9212 13.5938 97.0461 14.2497 97.2926C14.6122 97.429 15.0159 97.3986 15.3539 97.2098C15.6918 97.0213 15.9296 96.6933 16.0039 96.3133C16.5366 93.5871 18.9428 91.6084 21.7251 91.6084C22.4161 91.6084 23.0917 91.7278 23.7334 91.9632C24.1088 92.1009 24.5261 92.0607 24.8677 91.8538C25.2096 91.6469 25.4388 91.296 25.4911 90.8998C25.8708 88.0139 28.355 85.8378 31.2698 85.8378C32.5476 85.8378 33.7611 86.2438 34.7786 87.0121C35.0926 87.2492 35.4959 87.3331 35.8784 87.2413C36.2609 87.1496 36.5823 86.8914 36.7544 86.5377C37.7394 84.5125 39.7497 83.2541 42.0001 83.2541C44.2504 83.2541 46.2608 84.5125 47.2464 86.5378C47.4185 86.8916 47.7399 87.1498 48.1223 87.2415C48.505 87.3331 48.908 87.2492 49.2222 87.0123C50.24 86.2442 51.4534 85.8379 52.7311 85.8379C55.6457 85.8379 58.1301 88.0141 58.5097 90.8999C58.5619 91.296 58.7911 91.6471 59.133 91.854C59.4749 92.061 59.8923 92.1012 60.2675 91.9636C60.909 91.7281 61.5849 91.6087 62.2758 91.6087C65.058 91.6087 67.4643 93.5874 67.997 96.3137C68.0712 96.6936 68.3089 97.0214 68.6467 97.2101C68.9847 97.399 69.3887 97.429 69.7508 97.293C70.4068 97.0465 71.0965 96.9215 71.801 96.9215C72.8203 96.9215 74.1635 97.966 74.5562 99.6535C75.2368 102.576 72.8352 105.703 68.1325 108.018C68.1215 108.023 68.1107 108.029 68.0999 108.035C67.3181 108.447 66.44 108.84 65.4798 109.211C65.4339 109.229 65.3886 109.247 65.3423 109.264C63.1358 110.105 60.4965 110.83 57.5505 111.398C56.837 111.536 56.37 112.226 56.5077 112.939C56.638 113.615 57.2625 114.069 57.9342 113.998C57.9798 113.994 58.0256 113.988 58.0717 113.979C61.328 113.355 64.2332 112.54 66.7066 111.557C67.284 111.351 67.8114 111.148 68.3186 110.936C69.8189 110.309 71.2728 109.339 72.2382 108.662C72.2402 108.661 72.2538 108.651 72.2557 108.65C72.2589 108.648 72.2738 108.637 72.2767 108.635L72.3048 108.616C72.3228 108.603 72.3496 108.584 72.3817 108.56C72.6065 108.401 72.8232 108.239 73.0332 108.075C73.0467 108.064 73.0618 108.053 73.0754 108.043C73.3397 107.84 73.6744 107.578 74.0025 107.304C76.2841 111.75 80.0933 119.8 81.1401 125.848C81.1461 125.885 81.1542 125.921 81.1634 125.957C81.2994 126.477 81.3684 127 81.3679 127.513C81.3668 127.541 81.3656 127.569 81.3653 127.597C81.365 127.615 81.3652 127.633 81.3656 127.651C81.3665 127.687 81.3658 127.719 81.3632 127.746C81.3614 127.765 81.3601 127.785 81.3591 127.804C81.1688 131.701 77.0229 135.6 69.9849 138.501C62.4902 141.592 52.5525 143.293 42.0024 143.293C31.4842 143.293 21.5676 141.6 14.0793 138.526C7.04591 135.639 2.87905 131.754 2.64755 127.869C2.64558 127.836 2.64247 127.804 2.6382 127.772C2.63066 127.716 2.62885 127.662 2.63295 127.609C2.63541 127.576 2.63656 127.543 2.63656 127.51C2.63656 127.016 2.70055 126.511 2.82671 126.01C2.83491 125.977 2.84213 125.943 2.84787 125.909C3.09397 124.465 3.52266 122.796 4.12248 120.95C4.34691 120.259 3.96859 119.516 3.27772 119.292C2.58636 119.067 1.84447 119.446 1.62003 120.137C0.988223 122.084 0.531637 123.86 0.263067 125.418C0.0960507 126.098 0.00958968 126.786 0.00581624 127.466C-0.00599627 127.666 0.000238109 127.869 0.0240272 128.07C0.347559 133.06 4.98184 137.636 13.0805 140.961C20.8784 144.162 31.1497 145.925 42.0027 145.925C52.889 145.925 63.1827 144.152 70.9882 140.934C79.1108 137.585 83.7254 132.978 83.9862 127.959C83.9952 127.851 83.9987 127.739 83.997 127.624C83.9989 127.586 84 127.548 84 127.51C84.0003 126.794 83.9075 126.066 83.7242 125.347Z" fill="black"/>
</svg>
